<?xml version="1.0" encoding="UTF-8"?>
<svg xmlns="http://www.w3.org/2000/svg" xmlns:xlink="http://www.w3.org/1999/xlink" width="124px" height="128px" viewBox="0 0 124 127" version="1.1">
<g id="surface1">
<path style="fill-rule:nonzero;fill:rgb(0%,0%,0%);fill-opacity:1;stroke-width:37.395302;stroke-linecap:butt;stroke-linejoin:miter;stroke:rgb(0%,0%,0%);stroke-opacity:1;stroke-miterlimit:4;" d="M 323.210685 324.222244 C 326.041331 300.621014 325.183972 297.167175 342.766633 300.991068 L 347.230343 301.374828 C 360.743952 301.991585 378.435484 299.209326 388.819052 294.384916 C 411.178427 284.009695 424.433468 266.685679 402.387097 271.235974 C 352.08871 281.611196 348.632056 264.575 348.632056 264.575 C 401.74748 185.767175 423.943548 85.742913 404.782258 61.250812 C 352.510585 -5.537106 262.03881 26.054552 260.528226 26.863189 L 260.038306 26.959129 C 250.103831 24.889567 238.985383 23.669759 226.49244 23.464173 C 203.724798 23.094119 186.455141 29.426156 173.349798 39.362795 C 173.349798 39.362795 11.948589 -27.137303 19.460685 122.99503 C 21.052923 154.929331 65.227319 364.654085 117.920867 301.306299 C 137.177419 278.143652 155.794355 258.558194 155.794355 258.558194 C 165.034778 264.698351 176.09879 267.823253 187.707157 266.699385 L 188.605343 265.931865 C 188.319556 268.810064 188.442036 271.63344 188.959173 274.950221 C 175.391129 290.122441 179.378528 292.781348 152.24244 298.373278 C 124.779738 304.033735 140.919859 314.107431 151.439516 316.738927 C 164.204637 319.932357 193.749496 324.455241 213.71371 296.509301 L 212.910786 299.702731 C 218.245464 303.965207 217.878024 330.321284 218.640121 349.152928 C 219.388609 367.984572 220.654234 385.568996 224.491935 395.930512 C 228.329637 406.292028 232.861391 432.977042 268.530242 425.329257 C 298.333669 418.942397 321.128528 409.745866 323.210685 324.222244 " transform="matrix(0.287037,0,0,0.285009,0,0)"/>
<path style=" stroke:none;fill-rule:nonzero;fill:rgb(20%,40.392157%,56.862748%);fill-opacity:1;" d="M 115.503906 77.304688 C 101.0625 80.261719 100.070312 75.40625 100.070312 75.40625 C 115.316406 52.945312 121.6875 24.433594 116.1875 17.457031 C 101.1875 -1.578125 75.214844 7.425781 74.78125 7.65625 L 74.640625 7.683594 C 71.789062 7.09375 68.597656 6.746094 65.007812 6.6875 C 58.476562 6.578125 53.519531 8.386719 49.757812 11.21875 C 49.757812 11.21875 3.429688 -7.734375 5.582031 35.054688 C 6.039062 44.15625 18.722656 103.929688 33.847656 85.875 C 39.375 79.273438 44.71875 73.691406 44.71875 73.691406 C 47.371094 75.441406 50.546875 76.332031 53.875 76.011719 L 54.132812 75.792969 C 54.054688 76.613281 54.089844 77.417969 54.238281 78.363281 C 50.339844 82.6875 51.488281 83.445312 43.699219 85.039062 C 35.816406 86.652344 40.445312 89.523438 43.46875 90.273438 C 47.132812 91.183594 55.613281 92.472656 61.339844 84.507812 L 61.113281 85.417969 C 62.640625 86.632812 63.710938 93.316406 63.53125 99.375 C 63.351562 105.433594 63.234375 109.59375 64.433594 112.84375 C 65.636719 116.09375 66.835938 123.402344 77.078125 121.222656 C 85.632812 119.402344 90.066406 114.683594 90.683594 106.816406 C 91.121094 101.21875 92.113281 102.046875 92.175781 97.046875 L 92.96875 94.675781 C 93.886719 87.09375 93.113281 84.644531 98.386719 85.785156 L 99.667969 85.894531 C 103.546875 86.070312 108.625 85.277344 111.605469 83.898438 C 118.023438 80.941406 121.828125 76.003906 115.5 77.304688 Z M 115.503906 77.304688 "/>
<path style="fill:none;stroke-width:12.4651;stroke-linecap:round;stroke-linejoin:round;stroke:rgb(100%,100%,100%);stroke-opacity:1;stroke-miterlimit:4;" d="M 215.863911 286.490428 C 214.475806 335.995448 216.217742 385.856816 221.0625 397.972662 C 225.907258 410.102215 236.277218 433.662328 271.959677 426.028248 C 301.763105 419.627682 312.609375 407.265133 317.318044 379.977067 C 320.788306 359.884498 327.470262 304.115969 328.327621 292.685408 " transform="matrix(0.287037,0,0,0.285009,0,0)"/>
<path style="fill:none;stroke-width:12.4651;stroke-linecap:round;stroke-linejoin:round;stroke:rgb(100%,100%,100%);stroke-opacity:1;stroke-miterlimit:4;" d="M 173.104839 38.252633 C 173.104839 38.252633 11.581149 -27.75406 19.093246 122.364567 C 20.685484 154.298868 64.873488 364.023622 117.567036 300.675837 C 136.823589 277.513189 154.229335 259.339419 154.229335 259.339419 " transform="matrix(0.287037,0,0,0.285009,0,0)"/>
<path style="fill:none;stroke-width:12.4651;stroke-linecap:round;stroke-linejoin:round;stroke:rgb(100%,100%,100%);stroke-opacity:1;stroke-miterlimit:4;" d="M 260.35131 26.205315 C 254.758065 27.959646 350.197077 -8.675714 404.442036 60.620349 C 423.589718 85.112451 401.393649 185.136713 348.278226 263.958243 " transform="matrix(0.287037,0,0,0.285009,0,0)"/>
<path style="fill:none;stroke-width:12.4651;stroke-linecap:round;stroke-linejoin:bevel;stroke:rgb(100%,100%,100%);stroke-opacity:1;stroke-miterlimit:4;" d="M 348.278226 263.958243 C 348.278226 263.958243 351.748488 280.994439 402.046875 270.605512 C 424.079637 266.055217 410.824597 283.379232 388.465222 293.754454 C 370.120464 302.279405 328.994456 304.458612 328.327621 292.685408 C 326.599294 262.340969 349.965726 271.564911 348.278226 263.958243 C 346.754032 257.105389 336.302419 250.375886 329.389113 233.613804 C 323.346774 218.976107 246.592742 106.76747 350.673387 123.433612 C 354.483871 122.638681 323.52369 24.423573 226.125 22.833711 C 128.739919 21.230143 131.938004 142.594193 131.938004 142.594193 " transform="matrix(0.287037,0,0,0.285009,0,0)"/>
<path style="fill:none;stroke-width:12.4651;stroke-linecap:round;stroke-linejoin:round;stroke:rgb(100%,100%,100%);stroke-opacity:1;stroke-miterlimit:4;" d="M 188.605343 274.333465 C 175.02369 289.505684 179.024698 292.164592 151.875 297.756521 C 124.425907 303.416978 140.552419 313.490674 151.085685 316.12217 C 163.850806 319.3156 193.395665 323.838484 213.34627 295.892544 C 219.429435 287.381299 213.319052 273.798942 204.963206 270.345103 C 200.93498 268.673007 195.532258 266.576033 188.605343 274.333465 Z M 188.605343 274.333465 " transform="matrix(0.287037,0,0,0.285009,0,0)"/>
<path style="fill:none;stroke-width:12.4651;stroke-linecap:round;stroke-linejoin:round;stroke:rgb(100%,100%,100%);stroke-opacity:1;stroke-miterlimit:4;" d="M 187.720766 274.073056 C 186.34627 265.15064 190.646673 254.542421 195.246472 242.125049 C 202.173387 223.498991 218.150202 204.872933 205.371472 145.787623 C 195.845262 101.764887 131.965222 136.618504 131.938004 142.594193 C 131.897177 148.556176 134.823085 172.856398 130.862903 201.14498 C 125.705141 238.054454 154.351815 269.276058 187.339718 266.082628 " transform="matrix(0.287037,0,0,0.285009,0,0)"/>
<path style="fill-rule:nonzero;fill:rgb(100%,100%,100%);fill-opacity:1;stroke-width:4.155;stroke-linecap:butt;stroke-linejoin:miter;stroke:rgb(100%,100%,100%);stroke-opacity:1;stroke-miterlimit:4;" d="M 172.519657 141.703322 C 172.233871 143.745472 176.248488 149.186639 181.487903 149.913041 C 186.727319 150.639444 191.204637 146.390674 191.490423 144.348524 C 191.77621 142.306373 187.761593 140.058637 182.508569 139.332234 C 177.282762 138.605832 172.791835 139.661171 172.519657 141.703322 Z M 172.519657 141.703322 " transform="matrix(0.287037,0,0,0.285009,0,0)"/>
<path style="fill-rule:nonzero;fill:rgb(100%,100%,100%);fill-opacity:1;stroke-width:2.0775;stroke-linecap:butt;stroke-linejoin:miter;stroke:rgb(100%,100%,100%);stroke-opacity:1;stroke-miterlimit:4;" d="M 331.947581 137.536786 C 332.219758 139.578937 328.205141 145.020103 322.965726 145.746506 C 317.72631 146.486614 313.248992 142.224139 312.963206 140.195694 C 312.677419 138.153543 316.705645 135.905807 321.94506 135.179405 C 327.184476 134.439296 331.661794 135.508342 331.947581 137.550492 Z M 331.947581 137.536786 " transform="matrix(0.287037,0,0,0.285009,0,0)"/>
<path style="fill:none;stroke-width:12.4651;stroke-linecap:round;stroke-linejoin:round;stroke:rgb(100%,100%,100%);stroke-opacity:1;stroke-miterlimit:4;" d="M 350.673387 123.433612 C 351.544355 139.428174 347.230343 150.324213 346.685988 167.346703 C 345.883065 192.099213 358.484879 220.415207 339.500504 248.786024 " transform="matrix(0.287037,0,0,0.285009,0,0)"/>
</g>
</svg>
